<?xml version="1.0" encoding="utf-8"?>
<!-- Generator: Adobe Illustrator 13.0.0, SVG Export Plug-In . SVG Version: 6.00 Build 14948)  -->
<!DOCTYPE svg PUBLIC "-//W3C//DTD SVG 1.1//EN" "http://www.w3.org/Graphics/SVG/1.1/DTD/svg11.dtd">
<svg version="1.1" id="Layer_1" xmlns="http://www.w3.org/2000/svg" xmlns:xlink="http://www.w3.org/1999/xlink" x="0px" y="0px"
	 width="512px" height="512px" viewBox="0 0 512 512" enable-background="new 0 0 512 512" xml:space="preserve">
<path id="book-3-icon" fill="#FFFFFF" d="M410,232.333h38v85h-38V232.333z M410,207.333h38v-85h-38V207.333z M410,427h38v-85h-38
	V427z M234.375,254.541c-7.007,0-13.46,4.607-18.069,13.273c-4.427,8.297-7.376,19.174-7.376,27.658
	c0,9.771,3.688,14.934,10.696,14.934c6.82,0,13.273-5.348,18.067-14.752c4.426-8.666,7.375-19.91,7.375-28.395
	C245.068,259.702,240.827,254.541,234.375,254.541z M448,50v38c-110.617,0-310.365,0-324,0c-23.611,0-23.611,34.528,0,34.528
	c15.559,0,259.585,0,259.585,0V462H114c-27.613,0-50-22.386-50-50V100c0-27.614,22.387-50,50-50H448z M146.795,286.989
	c0,21.389,7.559,40.933,21.389,54.575c14.564,14.566,34.848,21.941,60.844,21.941c13.275,0,26.549-2.027,39.087-5.9
	c8.667-2.582,13.093-4.793,23.049-10.693l-11.247-16.225c-8.851,5.346-13.46,7.561-20.651,9.771
	c-8.479,2.582-18.62,4.058-28.209,4.058c-37.059,0-61.582-23.231-61.582-58.633c0-36.506,27.29-62.319,66.192-62.319
	c13.091,0,24.708,2.765,33.005,7.743c13.272,8.298,21.201,23.047,21.201,40.009c0,14.197-5.897,27.843-14.935,34.851
	c-3.688,2.948-8.111,4.793-11.614,4.793c-3.136,0-4.794-1.659-4.794-4.61c0-1.658,0.185-3.504,0.736-5.531l11.063-40.93
	c0.922-4.059,4.24-15.304,5.346-18.992h-21.756l-1.844,6.453c-4.979-7.744-10.142-10.326-20.466-10.326
	c-24.521,0-44.987,25.814-44.987,56.973c0,21.019,11.615,34.664,29.869,34.664c10.325,0,17.699-3.504,24.706-11.616
	c0.551,3.319,0.736,4.24,1.659,5.714c2.766,4.429,8.666,7.193,15.857,7.193c12.353,0,24.892-5.531,34.479-15.121
	c11.244-11.246,17.515-27.103,17.515-44.435c0-38.536-30.606-66.191-73.567-66.191c-28.579,0-50.888,8.297-67.851,25.261
	C154.539,244.399,146.795,264.127,146.795,286.989z"/>
</svg>
